<svg width="91" height="119" viewBox="0 0 91 119" fill="none" xmlns="http://www.w3.org/2000/svg">
<g id="Present2">
<path id="Vector" d="M39.8329 19.2384H51.257C52.1242 19.2384 52.9558 19.5819 53.569 20.1934C54.1822 20.8049 54.5267 21.6342 54.5267 22.499V30.9824H36.5339V22.499C36.5339 22.0683 36.6194 21.6419 36.7855 21.2444C36.9517 20.8469 37.1951 20.4862 37.5019 20.183C37.8086 19.8798 38.1726 19.6403 38.5726 19.4781C38.9727 19.316 39.401 19.2345 39.8329 19.2384Z" fill="#FC543D"/>
<path id="Vector_2" d="M46.4896 33.1789L37.1114 22.0987L12.1387 0.289828C12.0265 0.160653 11.8775 0.068716 11.7115 0.0262868C11.5454 -0.0161425 11.3704 -0.00704257 11.2097 0.0523846C11.049 0.111812 10.9104 0.218738 10.8122 0.358856C10.7141 0.498974 10.6612 0.665623 10.6606 0.836527V34.1454L46.4896 33.1789Z" fill="#FC543D"/>
<path id="Vector_3" d="M43.9346 33.7948L54.4287 21.592L78.2854 0.896038C78.3976 0.766864 78.5467 0.674912 78.7127 0.632482C78.8787 0.590053 79.0538 0.599168 79.2144 0.658595C79.3751 0.718022 79.5138 0.824933 79.612 0.965051C79.7101 1.10517 79.763 1.27182 79.7636 1.44272V34.7418L43.9346 33.7948Z" fill="#FC543D"/>
<path id="Vector_4" d="M88.7991 31.4314H1.625C0.727525 31.4314 0 32.1569 0 33.0519V117.349C0 118.244 0.727525 118.97 1.625 118.97H88.7991C89.6966 118.97 90.4241 118.244 90.4241 117.349V33.0519C90.4241 32.1569 89.6966 31.4314 88.7991 31.4314Z" fill="#FCBDB6"/>
<path id="Vector_5" d="M51.7563 30.9629H38.6777V118.97H51.7563V30.9629Z" fill="#FC543D"/>
<path id="Vector_6" d="M90.4241 68.6062H0V78.4855H90.4241V68.6062Z" fill="#FC543D"/>
</g>
</svg>
