<svg width="121" height="145" viewBox="0 0 121 145" fill="none" xmlns="http://www.w3.org/2000/svg">
<g id="Present1">
<path id="Vector" d="M26.1767 51.0177C12.7555 42.8759 8.75169 27.1099 11.7766 16.3714C14.312 7.33156 21.5659 1.72803 30.807 1.72803C52.7645 1.72803 63.2587 37.2724 64.3845 41.3237L52.8038 44.5258C49.9942 34.4707 40.9292 13.7258 30.807 13.7258C26.9598 13.7258 24.4441 15.6783 23.3379 19.5832C21.4975 26.1629 24.3852 35.8764 32.4321 40.7575L26.1767 51.0177Z" fill="#A6B5FF"/>
<path id="Vector_2" d="M96.7481 49.2799C110.15 41.148 114.173 25.3624 111.158 14.6434C108.613 5.59377 101.369 0 92.1274 0C70.1601 0 59.6758 35.5346 58.55 39.5957L70.1308 42.788C72.9403 32.7329 82.0053 11.9783 92.1274 11.9783C95.9747 11.9783 98.4905 13.9308 99.5869 17.8942C101.437 24.4642 98.5493 34.1875 90.5025 39.0686L96.7481 49.2799Z" fill="#A6B5FF"/>
<path id="Vector_3" d="M118.451 36.8232H1.72288C0.771339 36.8232 9.53674e-06 37.5925 9.53674e-06 38.5414V142.422C9.53674e-06 143.37 0.771339 144.14 1.72288 144.14H118.451C119.403 144.14 120.174 143.37 120.174 142.422V38.5414C120.174 37.5925 119.403 36.8232 118.451 36.8232Z" fill="#FC543D"/>
<path id="Vector_4" d="M30.5525 36.8232H19.4905V144.14H30.5525V36.8232Z" fill="#A6B5FF"/>
<path id="Vector_5" d="M67.0081 36.8232H55.9461V144.14H67.0081V36.8232Z" fill="#A6B5FF"/>
<path id="Vector_6" d="M100.85 36.8232H89.7879V144.14H100.85V36.8232Z" fill="#A6B5FF"/>
</g>
</svg>
