<svg width="221" height="305" viewBox="0 0 221 305" fill="none" xmlns="http://www.w3.org/2000/svg">
<g id="santa">
<path id="Vector" d="M183.551 50.2197L176.083 57.0774L168.062 48.7668L176.295 41.4294L183.551 50.2197Z" fill="#EDB2A2"/>
<path id="Vector_2" d="M200.974 24.6392C202.771 26.3189 204.189 28.3564 205.137 30.618C206.084 32.8797 206.539 35.3145 206.472 37.7629C206.406 40.2113 205.818 42.6181 204.748 44.8254C203.678 47.0327 202.151 48.9909 200.265 50.5714C199.863 50.9141 199.563 51.3598 199.399 51.8598L197.498 57.6256C197.474 57.6989 197.431 57.7646 197.373 57.8156C197.314 57.8667 197.243 57.9013 197.167 57.9158C197.091 57.9303 197.012 57.9241 196.939 57.898C196.866 57.8718 196.801 57.8267 196.752 57.7672L194.109 54.2173C191.136 54.9975 188.013 55.0235 185.028 54.293C182.042 53.5626 179.289 52.099 177.022 50.0369C175.29 48.4905 173.886 46.6167 172.892 44.5253C171.898 42.4339 171.335 40.1669 171.235 37.8568C171.135 35.5467 171.5 33.24 172.309 31.0717C173.118 28.9033 174.355 26.9169 175.947 25.2286C177.539 23.5402 179.455 22.184 181.582 21.2391C183.708 20.2942 186.004 19.7797 188.333 19.7257C190.663 19.6717 192.98 20.0792 195.149 20.9245C197.318 21.7697 199.295 23.0357 200.965 24.6484L200.974 24.6392Z" fill="#EDB2A2"/>
<path id="Vector_3" d="M197.852 47.9354C198.018 46.0485 198.05 38.7979 189.104 37.5415C189.052 37.5338 189 37.5369 188.949 37.5505C188.899 37.5641 188.852 37.588 188.811 37.6207C188.77 37.6533 188.737 37.694 188.713 37.7401C188.689 37.7863 188.675 37.8369 188.671 37.8887C188.561 39.5197 188.736 45.7652 197.35 48.2643C197.405 48.2835 197.464 48.2897 197.522 48.2827C197.58 48.2756 197.635 48.2553 197.684 48.2235C197.732 48.1916 197.773 48.149 197.802 48.099C197.831 48.0491 197.848 47.993 197.852 47.9354V47.9354Z" fill="white"/>
<path id="Vector_4" d="M193.437 45.7514C195.12 45.7514 196.485 44.3973 196.485 42.7269C196.485 41.0565 195.12 39.7024 193.437 39.7024C191.753 39.7024 190.389 41.0565 190.389 42.7269C190.389 44.3973 191.753 45.7514 193.437 45.7514Z" fill="#553EF9"/>
<path id="Vector_5" d="M201.425 44.3303C202.052 46.7289 205.942 48.6386 208.373 48.0675C210.804 47.4964 212.595 45.1116 212.706 42.6353C212.721 41.392 212.415 40.1655 211.819 39.0718C211.223 37.9782 210.355 37.0535 209.299 36.3852C209.865 33.6211 209.791 30.6149 208.424 28.1615C207.056 25.7081 204.179 23.9263 201.379 24.4334C200.748 21.651 199.017 19.0149 196.42 17.8087C193.824 16.6026 190.357 17.1234 188.593 19.3849C187.394 18.372 185.919 17.7352 184.355 17.5555C182.791 17.3757 181.208 17.661 179.808 18.3752C177.046 19.8509 175.471 23.3552 175.908 26.4391C172.607 27.8462 169.002 30.4367 168.587 33.9775C168.173 37.5183 171.612 41.452 175.208 41.3652C178.468 41.2829 180.927 38.2676 181.958 35.1974C181.461 36.6776 186.774 39.1996 188.05 39.3412C192.525 39.8347 193.805 37.0843 193.805 37.0843C193.805 37.0843 194.961 44.2572 201.425 44.3303Z" fill="#D9E0F9"/>
<path id="Vector_6" d="M130.768 39.2912C111.752 39.1039 92.3217 39.9217 74.5445 46.6012C56.7673 53.2808 40.6799 66.8271 35.3204 84.9285C34.1159 88.7499 33.6091 92.7541 33.824 96.7524C34.6252 108.028 43.1938 117.942 53.8113 122.045C64.4289 126.148 76.6349 124.955 87.1004 120.487C97.566 116.019 106.466 108.517 114.137 100.161C127.343 85.7621 137.284 68.7215 143.291 50.1877L130.768 39.2912Z" fill="#F4D34D"/>
<path id="Vector_7" d="M122.084 41.827L130.832 28.0385C131.008 27.7605 131.25 27.5301 131.538 27.3678C131.825 27.2054 132.148 27.1162 132.479 27.108C132.809 27.0999 133.137 27.1731 133.432 27.3211C133.727 27.4691 133.981 27.6873 134.17 27.9562L155.276 57.8039C155.591 58.2491 155.788 58.7648 155.852 59.3046C155.915 59.8445 155.843 60.3915 155.641 60.8966C155.438 61.4017 155.113 61.849 154.693 62.1984C154.274 62.5477 153.773 62.7882 153.237 62.898L139.005 65.7992L122.084 41.827Z" fill="#F4D34D"/>
<path id="Vector_8" d="M151.865 40.1821C151.865 40.1821 90.9404 44.2118 69.5811 112.967L142.131 144.948C142.131 144.948 159.95 90.2099 182.994 67.9373L151.865 40.1821Z" fill="#FC543D"/>
<path id="Vector_9" d="M111.333 237.844L95.9361 263.256C95.0351 264.743 94.7324 266.512 95.0883 268.211C95.4441 269.91 96.4325 271.413 97.8561 272.421L131.592 296.315C132.627 297.101 133.809 297.675 135.069 298.005C136.329 298.336 137.642 298.416 138.933 298.24C140.224 298.065 141.468 297.638 142.592 296.984C143.716 296.329 144.698 295.461 145.483 294.428C147.055 292.355 147.734 289.748 147.371 287.179C147.009 284.609 145.634 282.287 143.549 280.722L133.309 273.042C131.411 271.618 130.104 269.554 129.634 267.24C129.164 264.925 129.564 262.52 130.758 260.478L135.459 252.437L111.333 237.844Z" fill="#FC543D"/>
<path id="Vector_10" d="M140.575 253.264C153.927 229.598 159.95 206.288 156.045 179.451C152.141 152.614 132.232 127.527 109.754 112.085L83.2513 144.733C83.2513 144.733 136.832 171.995 103.837 236.771L140.575 253.264Z" fill="#FC543D"/>
<path id="Vector_11" d="M99.8288 226.698L98.0774 230.293C96.1218 234.307 97.8158 239.134 101.861 241.075L135.538 257.229C139.583 259.169 144.448 257.488 146.404 253.474L148.155 249.879C150.111 245.865 148.417 241.038 144.371 239.097L110.695 222.943C106.649 221.003 101.784 222.684 99.8288 226.698Z" fill="white"/>
<path id="Vector_12" d="M119.34 113.821C128.162 154.314 110.651 185.094 95.2132 199.015C79.775 212.936 47.4666 219.972 47.904 219.478L36.8859 178.542C36.8859 178.542 87.3721 176.774 86.6677 113.259L119.34 113.821Z" fill="#FC543D"/>
<path id="Vector_13" d="M40.2608 185.094L10.1487 190.22C8.38729 190.519 6.80452 191.467 5.71634 192.874C4.62816 194.281 4.11462 196.043 4.27823 197.809L8.15505 239.695C8.23297 241.015 8.57333 242.307 9.15652 243.496C9.73972 244.685 10.5542 245.747 11.5531 246.622C12.552 247.498 13.7155 248.168 14.9767 248.595C16.2379 249.022 17.5718 249.198 18.9015 249.111V249.111C21.5735 248.938 24.0672 247.72 25.8345 245.724C27.6018 243.728 28.4981 241.117 28.3265 238.466L27.4839 225.472C27.3285 223.063 28.0668 220.681 29.5596 218.775C31.0524 216.868 33.1964 215.57 35.5875 215.124L44.9895 213.37L40.2608 185.094Z" fill="#FC543D"/>
<path id="Vector_14" d="M41.4844 168.765L37.1561 169.912C32.8149 171.062 30.2353 175.486 31.3945 179.794L41.3542 216.806C42.5134 221.114 46.9723 223.673 51.3135 222.523L55.6418 221.376C59.983 220.226 62.5626 215.802 61.4034 211.494L51.4437 174.482C50.2845 170.174 45.8256 167.614 41.4844 168.765Z" fill="white"/>
<path id="Vector_15" d="M144.382 127.767L80.5104 96.608C75.6086 94.2168 69.6814 96.2213 67.2715 101.085L64.1574 107.371C61.7476 112.235 63.7677 118.116 68.6694 120.507L132.541 151.666C137.443 154.057 143.37 152.053 145.78 147.189L148.894 140.903C151.304 136.039 149.284 130.158 144.382 127.767Z" fill="white"/>
<path id="Vector_16" d="M205.643 154.492C213.338 154.492 219.575 148.302 219.575 140.667C219.575 133.032 213.338 126.842 205.643 126.842C197.948 126.842 191.71 133.032 191.71 140.667C191.71 148.302 197.948 154.492 205.643 154.492Z" fill="#FC543D"/>
<path id="Vector_17" d="M152.601 54.2812C149.125 54.3127 145.781 55.6118 143.208 57.9312C140.634 60.2507 139.011 63.4283 138.646 66.859C137.026 82.1006 140.534 97.4456 148.621 110.503C156.709 123.56 168.922 133.595 183.358 139.045L203.506 119.592C203.506 119.592 171.396 94.6781 166.782 66.2422C166.256 62.895 164.533 59.8474 161.93 57.6557C159.326 55.4641 156.015 54.2745 152.601 54.3041V54.2812Z" fill="#FC543D"/>
<path id="Vector_18" d="M208.885 118.908L202.421 113.079C199.594 110.53 195.22 110.738 192.652 113.543L176.064 131.657C173.496 134.462 173.705 138.802 176.532 141.351L182.996 147.179C185.823 149.728 190.197 149.52 192.765 146.715L209.353 128.601C211.921 125.796 211.712 121.456 208.885 118.908Z" fill="#D9E0F9"/>
<path id="Vector_19" d="M186.597 68.1124L161.728 34.2724C159.544 31.2998 155.346 30.6467 152.351 32.8136C149.356 34.9804 148.7 39.1467 150.884 42.1192L175.753 75.9592C177.937 78.9317 182.136 79.5848 185.13 77.418C188.125 75.2511 188.782 71.0849 186.597 68.1124Z" fill="white"/>
<path id="Vector_20" d="M213.254 32.9132C212.624 25.9936 209.983 19.4042 205.651 13.9459C201.319 8.48746 195.483 4.39495 188.851 2.16556C181.328 -0.39751 172.98 -0.484316 165.277 0.858896C157.574 2.20211 150.419 7.09981 143.462 9.99639C169.844 9.75425 173.058 13.857 178.791 24.7991L213.254 32.9132Z" fill="#FC543D"/>
<path id="Vector_21" d="M190.706 24.3196C190.865 20.2098 186.415 16.7035 180.766 16.4882C175.118 16.2729 170.41 19.43 170.251 23.5399C170.091 27.6497 174.542 31.156 180.19 31.3713C185.839 31.5866 190.547 28.4295 190.706 24.3196Z" fill="white"/>
<path id="Vector_22" d="M203.171 26.777C204.131 22.7759 200.451 18.4793 194.952 17.1804C189.452 15.8814 184.216 18.0719 183.256 22.073C182.297 26.0741 185.976 30.3706 191.476 31.6696C196.975 32.9686 202.211 30.7781 203.171 26.777Z" fill="white"/>
<path id="Vector_23" d="M215.583 35.8208C218.166 32.6042 216.676 27.163 212.256 23.6673C207.835 20.1717 202.157 19.9455 199.574 23.162C196.991 26.3786 198.48 31.8199 202.901 35.3155C207.322 38.8111 213 39.0374 215.583 35.8208Z" fill="white"/>
<path id="Vector_24" d="M145.741 18.1698C150.013 18.1698 153.476 14.7334 153.476 10.4943C153.476 6.25527 150.013 2.81885 145.741 2.81885C141.469 2.81885 138.006 6.25527 138.006 10.4943C138.006 14.7334 141.469 18.1698 145.741 18.1698Z" fill="white"/>
<path id="Vector_25" d="M171.608 35.2388C168.491 39.0108 165.861 43.1548 163.78 47.5744C161.018 53.5138 163.32 58.9963 164.241 61.2807C164.927 62.9757 168.385 71.3319 169.766 76.3575C171.654 83.2472 173.077 87.2175 178.514 91.8913C180.95 93.9838 186.507 95.6422 189.565 94.6326C195.09 92.8051 196.876 89.881 197.433 86.2626C197.991 82.6441 196.255 78.8658 193.363 76.5906C196.204 75.0417 197.696 71.5649 197.194 68.3668C196.664 64.9722 194.081 62.8066 191.383 60.9745C194.606 58.5348 194.606 54.423 194.146 53.9661L189.182 48.6298C189.124 48.5666 189.049 48.5196 188.967 48.4934C188.884 48.4671 188.796 48.4625 188.712 48.48C188.627 48.4974 188.548 48.5364 188.483 48.5931C188.418 48.6498 188.368 48.7222 188.34 48.8034L188.294 49.7171C188.311 51.1267 187.776 52.4877 186.802 53.5138C186.802 53.5138 186.342 53.1894 186.342 53.0569C186.079 51.6497 184.923 48.3648 180.816 43.9194C175.107 37.7379 171.608 35.2388 171.608 35.2388Z" fill="#D9E0F9"/>
<path id="Vector_26" d="M184.09 50.0873C184.788 51.9317 186.048 53.5144 187.695 54.615C188.1 54.8654 188.586 54.9506 189.052 54.8526C189.518 54.7546 189.928 54.4811 190.195 54.0896V54.0896C190.337 53.8822 190.434 53.6481 190.481 53.4019C190.527 53.1558 190.522 52.9027 190.466 52.6585C190.41 52.4143 190.304 52.1841 190.154 51.9823C190.005 51.7805 189.815 51.6114 189.597 51.4854C188.271 50.7132 186.489 49.6578 185.453 48.9908C185.285 48.8802 185.085 48.8274 184.883 48.8406C184.682 48.8538 184.491 48.9323 184.339 49.0639C184.196 49.1882 184.095 49.3533 184.051 49.5365C184.006 49.7197 184.02 49.9121 184.09 50.0873V50.0873Z" fill="#FC543D"/>
<path id="Vector_27" d="M142.331 292.89L97.7213 265.487C95.2371 263.961 91.977 264.722 90.4397 267.186C88.9025 269.65 89.6702 272.884 92.1545 274.41L136.764 301.813C139.249 303.339 142.509 302.579 144.046 300.115C145.583 297.651 144.815 294.416 142.331 292.89Z" fill="#F4D34D"/>
<path id="Vector_28" d="M15.7869 245.577L11.0136 193.732C10.7477 190.845 8.1745 188.718 5.26611 188.982C2.35771 189.246 0.215492 191.8 0.481316 194.687L5.25469 246.532C5.52051 249.419 8.09372 251.546 11.0021 251.282C13.9105 251.019 16.0528 248.465 15.7869 245.577Z" fill="#F4D34D"/>
</g>
</svg>
